<?xml version="1.0" standalone="no"?>
<!DOCTYPE svg PUBLIC "-//W3C//DTD SVG 20010904//EN"
 "http://www.w3.org/TR/2001/REC-SVG-20010904/DTD/svg10.dtd">
<svg version="1.0" xmlns="http://www.w3.org/2000/svg"
 width="256.000000pt" height="256.000000pt" viewBox="0 0 256.000000 256.000000"
 preserveAspectRatio="xMidYMid meet">
<metadata>
Created by potrace 1.16, written by Peter Selinger 2001-2019
</metadata>
<g transform="translate(0.000000,256.000000) scale(0.100000,-0.100000)"
fill="#000000" stroke="none">
<path d="M813 1647 c-480 -479 -553 -556 -553 -582 0 -41 192 -235 234 -235
23 0 98 71 466 443 l439 442 320 -320 321 -320 0 -402 c0 -252 -4 -403 -10
-403 -18 0 -83 -65 -97 -97 l-13 -33 -120 0 -120 0 0 423 c0 398 -1 425 -18
440 -16 15 -50 17 -264 17 -225 0 -246 -2 -261 -18 -15 -17 -17 -62 -17 -440
l0 -422 -180 0 -180 0 0 283 c0 262 -1 285 -18 300 -22 20 -73 22 -90 5 -8 -8
-12 -45 -12 -100 l0 -87 -49 -21 c-60 -26 -103 -70 -131 -132 -18 -41 -28 -51
-70 -69 -57 -24 -104 -73 -132 -136 l-19 -43 -97 0 c-63 0 -102 -4 -110 -12
-16 -16 -16 -80 0 -96 18 -18 1981 -17 1995 1 6 6 13 32 16 56 7 53 17 64 57
64 40 0 50 -11 57 -64 8 -63 16 -69 92 -69 77 0 91 9 91 60 0 39 -14 60 -40
60 -9 0 -24 17 -34 40 -17 39 -71 90 -94 90 -9 0 -12 89 -12 337 l0 336 59
-56 c86 -82 92 -80 218 47 82 83 103 109 103 132 0 24 -81 110 -552 581 -520
520 -555 553 -588 553 -33 0 -68 -33 -587 -553z m1084 -89 l493 -493 -42 -42
-42 -43 -441 440 c-341 340 -446 440 -465 440 -19 0 -124 -100 -465 -440
l-440 -440 -43 42 -42 43 492 492 c271 271 495 493 498 493 3 0 226 -222 497
-492z m-1260 -1415 c-2 -2 -64 -2 -136 -1 l-132 3 31 32 c20 20 46 35 68 38
77 13 83 19 96 97 4 22 19 48 39 68 l32 31 3 -132 c1 -72 1 -134 -1 -136z"/>
</g>
</svg>
