<?xml version="1.0" standalone="no"?>
<!DOCTYPE svg PUBLIC "-//W3C//DTD SVG 20010904//EN"
 "http://www.w3.org/TR/2001/REC-SVG-20010904/DTD/svg10.dtd">
<svg version="1.0" xmlns="http://www.w3.org/2000/svg"
 width="4186.000000pt" height="1562.000000pt" viewBox="0 0 4186.000000 1562.000000"
 preserveAspectRatio="xMidYMid meet">
<metadata>
Created by potrace 1.16, written by Peter Selinger 2001-2019
</metadata>
<g transform="translate(0.000000,1562.000000) scale(0.100000,-0.100000)"
fill="#000000" stroke="none">
<path d="M23020 13760 l0 -1860 -450 -460 -450 -459 0 -2096 0 -2095 -130 0
-130 0 0 -2325 0 -2325 -90 0 -90 0 0 50 c0 38 -4 50 -15 50 -13 0 -15 524
-15 4660 l0 4660 -50 0 -50 0 0 290 0 290 -25 0 c-24 0 -25 3 -25 60 l0 60
-80 0 -80 0 0 1465 0 1465 -30 0 -30 0 0 -1465 0 -1465 -35 0 -35 0 0 50 0 50
-90 0 -90 0 0 60 0 60 -140 0 -140 0 0 50 0 50 -215 0 -215 0 0 -50 0 -50
-265 0 -265 0 0 -60 0 -60 -100 0 -100 0 0 -270 0 -270 -190 0 -190 0 0 -440
0 -440 -115 0 -115 0 0 -1580 0 -1580 -195 0 -195 0 0 -525 0 -525 -170 0
-170 0 0 120 0 120 -290 0 -290 0 0 95 0 95 -60 0 -60 0 0 775 0 775 -55 0
-55 0 0 -775 0 -775 -95 0 -95 0 0 -95 0 -95 -130 0 -130 0 0 -120 0 -120
-240 0 -240 0 0 1650 c0 1460 -2 1650 -15 1650 -13 0 -15 55 -15 435 l0 435
-125 0 -125 0 0 125 0 125 -345 0 -345 0 0 -125 0 -125 -90 0 -90 0 0 160 0
160 -195 0 -195 0 0 170 0 170 -235 0 -235 0 0 770 0 770 -30 0 -30 0 0 -770
0 -770 -155 0 -155 0 0 -170 0 -170 -205 0 -205 0 0 -160 0 -160 -100 0 -100
0 0 -435 0 -435 -50 0 -50 0 0 -160 c0 -153 -1 -160 -20 -160 -20 0 -20 -7
-20 -3055 0 -1680 -3 -3055 -7 -3055 -5 0 -33 7 -63 15 -30 8 -72 15 -92 15
l-38 0 0 1965 0 1965 -55 0 -55 0 0 315 0 315 -80 0 -80 0 0 165 0 165 -245 0
-245 0 0 765 0 765 -35 0 -35 0 0 -765 0 -765 -130 0 -130 0 0 160 0 160 -40
0 -40 0 0 -160 0 -160 -135 0 -135 0 0 -165 0 -165 -215 0 -215 0 0 -315 0
-315 -155 0 -155 0 0 -1524 0 -1524 -27 -6 c-48 -10 -157 -26 -175 -26 -17 0
-18 42 -18 735 0 647 -2 735 -15 735 -13 0 -15 36 -15 260 l0 260 -100 0 -100
0 0 75 0 75 -285 0 -285 0 0 -75 0 -75 -75 0 -75 0 0 95 0 95 -160 0 -160 0 0
100 0 100 -345 0 -345 0 0 -100 0 -100 -170 0 -170 0 0 -95 0 -95 -80 0 -80 0
0 -260 0 -260 -40 0 -40 0 0 -95 c0 -88 -1 -95 -20 -95 -20 0 -20 -7 -20 -865
l0 -865 -41 0 c-38 0 -49 -7 -167 -117 -70 -64 -130 -126 -134 -137 -3 -12 -6
185 -7 437 l-1 457 -95 0 -95 0 0 200 0 200 -135 0 -135 0 0 85 0 85 -365 0
-365 0 0 -85 0 -85 -45 0 -45 0 0 -200 0 -200 -35 0 -35 0 0 -930 0 -930 -30
0 c-22 0 -30 5 -30 18 0 22 -56 42 -119 42 -39 0 -41 2 -41 30 l0 30 -75 0
-75 0 0 -40 c0 -38 -2 -40 -30 -40 l-30 0 0 1095 c0 723 -3 1095 -10 1095 -6
0 -10 33 -10 80 l0 80 -30 0 -30 0 0 225 0 225 -50 0 -50 0 0 85 0 85 -110 0
-110 0 0 90 0 90 -220 0 -220 0 0 -90 0 -90 -100 0 -100 0 0 -85 0 -85 -45 0
-45 0 0 70 0 70 -185 0 -185 0 0 -70 0 -70 -65 0 -65 0 0 -225 c0 -143 -4
-225 -10 -225 -7 0 -10 -472 -10 -1395 l0 -1395 -40 0 -40 0 0 -80 0 -80 -65
0 -65 0 0 -30 0 -30 -60 0 -60 0 0 114 c0 66 -4 117 -10 121 -6 4 -10 62 -10
141 0 112 -2 134 -15 134 -13 0 -15 21 -15 125 l0 125 -25 0 -25 0 0 100 c0
93 -1 100 -20 100 -19 0 -20 7 -20 155 l0 155 -275 0 -275 0 0 60 0 60 -75 0
-75 0 0 -35 c0 -34 -1 -35 -39 -35 -22 0 -44 6 -51 15 -7 8 -25 15 -41 15 -26
0 -29 4 -29 30 l0 30 -250 0 -250 0 0 -24 c0 -20 -7 -25 -45 -35 -34 -9 -45
-16 -45 -31 0 -16 -7 -20 -32 -21 -18 0 -98 -21 -178 -47 l-145 -48 -3 -33
c-2 -23 2 -37 15 -46 14 -11 16 -16 6 -26 -10 -10 -13 -94 -13 -351 l0 -338
-25 0 c-22 0 -25 -4 -25 -35 0 -32 -2 -35 -30 -35 l-30 0 0 -815 0 -815 -150
0 -150 0 0 70 0 70 -150 0 -150 0 0 -60 0 -60 -110 0 -110 0 0 80 0 80 -180 0
-180 0 0 -180 0 -180 -185 0 -185 0 0 -120 0 -120 -210 0 -210 0 0 -111 0
-110 -35 -15 -35 -14 0 -115 0 -115 20930 0 20930 0 0 165 0 165 -335 0 -335
0 0 245 0 245 -490 0 -490 0 0 495 0 496 -60 462 c-34 254 -63 472 -66 485 -4
19 -11 22 -49 22 l-45 0 0 115 0 115 -392 0 -392 0 -128 -40 -128 -41 0 -574
0 -575 -239 0 -238 0 -47 59 -46 59 0 156 0 156 -260 0 -260 0 0 -315 0 -315
-490 0 -490 0 0 -50 0 -50 -225 0 -225 0 0 319 0 319 -175 23 -175 23 0 1893
c0 1676 -2 1893 -15 1893 -13 0 -15 36 -15 260 l0 260 -100 0 -100 0 0 75 0
75 -290 0 -290 0 0 -75 0 -75 -70 0 -70 0 0 95 0 95 -160 0 -160 0 0 100 0
100 -345 0 -345 0 0 -100 0 -100 -170 0 -170 0 0 -95 0 -95 -85 0 -85 0 0
-260 0 -260 -40 0 -40 0 0 -95 c0 -78 -3 -95 -15 -95 -13 0 -15 -172 -15
-1485 l0 -1485 -370 0 -370 0 0 -375 0 -375 -70 0 -70 0 0 1345 0 1345 -35 0
-35 0 0 200 0 200 -50 0 -50 0 0 105 0 105 -370 0 -370 0 0 -105 0 -105 -135
0 -135 0 0 -200 0 -200 -95 0 -95 0 0 -1103 0 -1104 -117 23 c-65 12 -130 20
-145 17 l-28 -5 0 1651 0 1651 -93 0 -93 0 -49 65 -49 65 -73 0 -73 0 0 55 0
55 -310 0 -310 0 0 950 0 950 -150 0 -150 0 0 335 0 335 -220 0 -220 0 0 180
0 180 -135 0 -135 0 0 170 0 170 -40 0 -40 0 0 -170 0 -170 -125 0 -125 0 0
810 0 810 -40 0 -40 0 0 -810 0 -810 -245 0 -245 0 0 -180 0 -180 -80 0 -80 0
0 -335 0 -335 -55 0 -55 0 0 -960 0 -960 -95 0 -95 0 0 -80 0 -80 -80 0 -80 0
0 50 0 50 -205 0 -205 0 0 -50 0 -50 -100 0 -100 0 0 -1395 0 -1395 -80 0 -80
0 0 -83 c0 -76 -2 -86 -25 -107 l-25 -23 0 -539 0 -538 -45 0 -45 0 0 130 0
130 -25 0 -25 0 0 2620 0 2620 -320 0 -320 0 0 425 0 425 -65 0 -65 0 0 190 0
190 -355 0 -355 0 0 135 0 135 -435 0 -435 0 0 65 0 65 -30 0 -30 0 0 1965 c0
1081 -3 1965 -7 1965 -4 0 -134 -129 -290 -287 l-282 -288 0 468 -1 467 -50 0
-50 0 0 -523 0 -522 -130 -130 -130 -130 0 1833 0 1832 -25 0 -25 0 0 -1860z
m-2990 -1725 l0 -225 -65 0 -65 0 0 218 c0 120 3 222 7 225 3 4 33 7 65 7 l58
0 0 -225z m215 0 l0 -220 -62 -3 -63 -3 0 226 0 226 63 -3 62 -3 0 -220z m215
0 l0 -226 -62 3 -63 3 -3 210 c-1 115 0 215 2 222 4 9 26 13 66 13 l60 0 0
-225z m218 -2 l2 -223 -65 0 -65 0 0 225 0 226 63 -3 62 -3 3 -222z m430 0 l2
-223 -65 0 -65 0 0 218 c0 120 3 222 7 226 4 4 32 6 63 4 l55 -3 3 -222z
m-1430 -445 l-3 -73 -100 0 -100 0 -3 73 -3 72 106 0 106 0 -3 -72z m320 0
l-3 -73 -100 0 -100 0 -3 73 -3 72 106 0 106 0 -3 -72z m312 -3 l0 -76 -97 3
-98 3 -3 73 -3 72 101 0 100 0 0 -75z m320 0 l0 -76 -97 3 -98 3 -3 73 -3 72
101 0 100 0 0 -75z m320 0 l0 -75 -100 0 -100 0 0 75 0 75 100 0 100 0 0 -75z
m320 0 l0 -75 -100 0 -100 0 0 75 0 75 100 0 100 0 0 -75z m2485 -25 l0 -45
-150 0 -150 0 -3 33 c-6 63 -7 63 155 60 l148 -3 0 -45z m-4077 -202 l-3 -73
-100 0 -100 0 -3 73 -3 72 106 0 106 0 -3 -72z m320 0 l-3 -73 -100 0 -100 0
-3 73 -3 72 106 0 106 0 -3 -72z m312 -3 l0 -76 -97 3 -98 3 -3 73 -3 72 101
0 100 0 0 -75z m640 0 l0 -75 -100 0 -100 0 0 75 0 75 100 0 100 0 0 -75z
m320 0 l0 -75 -100 0 -100 0 0 75 0 75 100 0 100 0 0 -75z m2570 5 l0 -40
-455 0 -455 0 0 33 c0 19 3 37 7 40 3 4 208 7 455 7 l448 0 0 -40z m-4165
-235 l0 -70 -100 0 -100 0 -3 59 c-5 89 -7 87 105 84 l98 -3 0 -70z m320 0 l0
-70 -100 0 -100 0 -3 59 c-5 89 -7 87 105 84 l98 -3 0 -70z m315 0 l0 -75
-100 0 -100 0 0 75 0 75 100 0 100 0 0 -75z m320 0 l0 -75 -100 0 -100 0 0 75
0 75 100 0 100 0 0 -75z m320 0 l0 -75 -100 0 -100 0 0 75 0 75 100 0 100 0 0
-75z m320 0 l0 -75 -100 0 -100 0 0 75 0 75 100 0 100 0 0 -75z m-1590 -405
l0 -70 -105 0 -105 0 0 70 0 70 105 0 105 0 0 -70z m320 0 l0 -70 -105 0 -105
0 0 70 0 70 105 0 105 0 0 -70z m310 0 l0 -70 -100 0 -100 0 0 70 0 70 100 0
100 0 0 -70z m320 0 l0 -70 -100 0 -100 0 0 70 0 70 100 0 100 0 0 -70z m320
0 l0 -70 -100 0 -100 0 0 70 0 70 100 0 100 0 0 -70z m320 0 l0 -70 -100 0
-100 0 0 70 0 70 100 0 100 0 0 -70z m1155 -20 l0 -55 -60 0 -60 0 -3 58 -3
58 63 -3 63 -3 0 -55z m200 0 l0 -55 -60 0 -60 0 -3 44 c-5 68 0 72 65 69 l58
-3 0 -55z m200 0 l0 -55 -60 0 -60 0 -3 44 c-5 68 0 72 65 69 l58 -3 0 -55z
m203 3 l-3 -58 -60 0 -60 0 -3 44 c-5 67 -1 71 68 71 l61 0 -3 -57z m-600
-195 l3 -58 -66 0 -65 0 0 53 c0 30 3 57 7 61 4 4 32 6 63 4 l55 -3 3 -57z
m200 0 l3 -58 -66 0 -65 0 0 53 c0 30 3 57 7 61 4 4 32 6 63 4 l55 -3 3 -57z
m200 0 l3 -58 -66 0 -65 0 0 53 c0 30 3 57 7 61 4 4 32 6 63 4 l55 -3 3 -57z
m200 0 l3 -58 -66 0 -65 0 0 53 c0 30 3 57 7 61 4 4 32 6 63 4 l55 -3 3 -57z
m-3353 -63 l0 -70 -100 0 -100 0 -3 59 c-5 89 -7 87 105 84 l98 -3 0 -70z
m320 0 l0 -70 -100 0 -100 0 -3 59 c-5 89 -7 87 105 84 l98 -3 0 -70z m635 0
l0 -75 -100 0 -100 0 0 75 0 75 100 0 100 0 0 -75z m320 0 l0 -75 -100 0 -100
0 0 75 0 75 100 0 100 0 0 -75z m320 0 l0 -75 -100 0 -100 0 0 75 0 75 100 0
100 0 0 -75z m-1590 -275 l0 -70 -105 0 -105 0 0 70 0 70 105 0 105 0 0 -70z
m320 0 l0 -70 -105 0 -105 0 0 70 0 70 105 0 105 0 0 -70z m310 0 l0 -70 -100
0 -100 0 0 70 0 70 100 0 100 0 0 -70z m320 0 l0 -70 -100 0 -100 0 0 70 0 70
100 0 100 0 0 -70z m320 0 l0 -70 -100 0 -100 0 0 70 0 70 100 0 100 0 0 -70z
m320 0 l0 -70 -100 0 -100 0 0 70 0 70 100 0 100 0 0 -70z m1155 -50 l0 -55
-60 0 -60 0 -3 58 -3 58 63 -3 63 -3 0 -55z m200 0 l0 -55 -60 0 -60 0 -3 44
c-5 68 0 72 65 69 l58 -3 0 -55z m200 0 l0 -55 -60 0 -60 0 -3 44 c-5 68 0 72
65 69 l58 -3 0 -55z m203 3 l-3 -58 -60 0 -60 0 -3 44 c-5 67 -1 71 68 71 l61
0 -3 -57z m-600 -195 l3 -58 -66 0 -65 0 0 53 c0 30 3 57 7 61 4 4 32 6 63 4
l55 -3 3 -57z m200 0 l3 -58 -66 0 -65 0 0 53 c0 30 3 57 7 61 4 4 32 6 63 4
l55 -3 3 -57z m200 0 l3 -58 -66 0 -65 0 0 53 c0 30 3 57 7 61 4 4 32 6 63 4
l55 -3 3 -57z m200 0 l3 -58 -66 0 -65 0 0 53 c0 30 3 57 7 61 4 4 32 6 63 4
l55 -3 3 -57z m-3353 -33 l0 -70 -100 0 -100 0 -3 59 c-5 89 -7 87 105 84 l98
-3 0 -70z m320 0 l0 -70 -100 0 -100 0 -3 59 c-5 89 -7 87 105 84 l98 -3 0
-70z m315 0 l0 -75 -100 0 -100 0 0 75 0 75 100 0 100 0 0 -75z m320 0 l0 -75
-100 0 -100 0 0 75 0 75 100 0 100 0 0 -75z m320 0 l0 -75 -100 0 -100 0 0 75
0 75 100 0 100 0 0 -75z m320 0 l0 -75 -100 0 -100 0 0 75 0 75 100 0 100 0 0
-75z m-1590 -275 l0 -70 -105 0 -105 0 0 70 0 70 105 0 105 0 0 -70z m320 0
l0 -70 -105 0 -105 0 0 70 0 70 105 0 105 0 0 -70z m310 0 l0 -70 -100 0 -100
0 0 70 0 70 100 0 100 0 0 -70z m320 0 l0 -70 -100 0 -100 0 0 70 0 70 100 0
100 0 0 -70z m320 0 l0 -70 -100 0 -100 0 0 70 0 70 100 0 100 0 0 -70z m320
0 l0 -70 -100 0 -100 0 0 70 0 70 100 0 100 0 0 -70z m1155 -80 l0 -55 -60 0
-60 0 -3 58 -3 58 63 -3 63 -3 0 -55z m200 0 l0 -55 -60 0 -60 0 -3 44 c-5 68
0 72 65 69 l58 -3 0 -55z m200 0 l0 -55 -60 0 -60 0 -3 44 c-5 68 0 72 65 69
l58 -3 0 -55z m203 3 l-3 -58 -60 0 -60 0 -3 44 c-5 67 -1 71 68 71 l61 0 -3
-57z m-8083 -163 l0 -145 -615 0 -615 0 -3 134 c-1 74 0 141 2 148 4 11 121
13 618 11 l613 -3 0 -145z m1325 0 l0 -150 -615 0 -615 0 0 150 0 150 615 0
615 0 0 -150z m3405 -35 l0 -70 -100 0 -100 0 -3 59 c-5 89 -7 87 105 84 l98
-3 0 -70z m320 0 l0 -70 -100 0 -100 0 -3 59 c-5 89 -7 87 105 84 l98 -3 0
-70z m315 0 l0 -75 -100 0 -100 0 0 75 0 75 100 0 100 0 0 -75z m320 0 l0 -75
-100 0 -100 0 0 75 0 75 100 0 100 0 0 -75z m320 0 l0 -75 -100 0 -100 0 0 75
0 75 100 0 100 0 0 -75z m320 0 l0 -75 -100 0 -100 0 0 75 0 75 100 0 100 0 0
-75z m1158 3 l3 -58 -66 0 -65 0 0 53 c0 30 3 57 7 61 4 4 32 6 63 4 l55 -3 3
-57z m200 0 l3 -58 -66 0 -65 0 0 53 c0 30 3 57 7 61 4 4 32 6 63 4 l55 -3 3
-57z m200 0 l3 -58 -66 0 -65 0 0 53 c0 30 3 57 7 61 4 4 32 6 63 4 l55 -3 3
-57z m200 0 l3 -58 -66 0 -65 0 0 53 c0 30 3 57 7 61 4 4 32 6 63 4 l55 -3 3
-57z m-3348 -278 l0 -70 -105 0 -105 0 0 70 0 70 105 0 105 0 0 -70z m320 0
l0 -70 -105 0 -105 0 0 70 0 70 105 0 105 0 0 -70z m310 0 l0 -70 -100 0 -100
0 0 70 0 70 100 0 100 0 0 -70z m320 0 l0 -70 -100 0 -100 0 0 70 0 70 100 0
100 0 0 -70z m320 0 l0 -70 -100 0 -100 0 0 70 0 70 100 0 100 0 0 -70z m320
0 l0 -70 -100 0 -100 0 0 70 0 70 100 0 100 0 0 -70z m-6320 -195 l0 -145
-620 0 -620 0 0 145 0 145 620 0 620 0 0 -145z m1320 0 l0 -145 -615 0 -615 0
0 145 0 145 615 0 615 0 0 -145z m6155 85 l0 -55 -62 -3 -63 -3 0 61 0 61 63
-3 62 -3 0 -55z m200 0 l0 -55 -60 0 -60 0 -3 44 c-5 68 0 72 65 69 l58 -3 0
-55z m200 0 l0 -55 -60 0 -60 0 -3 44 c-5 68 0 72 65 69 l58 -3 0 -55z m205 0
l0 -61 -62 3 -63 3 -3 44 c-5 66 -1 71 68 71 l60 0 0 -60z m-3355 -165 l0 -70
-100 0 -100 0 -3 59 c-5 89 -7 87 105 84 l98 -3 0 -70z m320 0 l0 -70 -100 0
-100 0 -3 59 c-5 89 -7 87 105 84 l98 -3 0 -70z m315 0 l0 -75 -100 0 -100 0
0 75 0 75 100 0 100 0 0 -75z m320 0 l0 -75 -100 0 -100 0 0 75 0 75 100 0
100 0 0 -75z m320 0 l0 -75 -100 0 -100 0 0 75 0 75 100 0 100 0 0 -75z m320
0 l0 -75 -100 0 -100 0 0 75 0 75 100 0 100 0 0 -75z m1158 -27 l3 -58 -66 0
-65 0 0 53 c0 30 3 57 7 61 4 4 32 6 63 4 l55 -3 3 -57z m200 0 l3 -58 -66 0
-65 0 0 53 c0 30 3 57 7 61 4 4 32 6 63 4 l55 -3 3 -57z m200 0 l3 -58 -66 0
-65 0 0 53 c0 30 3 57 7 61 4 4 32 6 63 4 l55 -3 3 -57z m200 0 l3 -58 -66 0
-65 0 0 53 c0 30 3 57 7 61 4 4 32 6 63 4 l55 -3 3 -57z m-3348 -248 l0 -70
-105 0 -105 0 0 70 0 70 105 0 105 0 0 -70z m320 0 l0 -70 -105 0 -105 0 0 70
0 70 105 0 105 0 0 -70z m310 0 l0 -70 -100 0 -100 0 0 70 0 70 100 0 100 0 0
-70z m320 0 l0 -70 -100 0 -100 0 0 70 0 70 100 0 100 0 0 -70z m320 0 l0 -70
-100 0 -100 0 0 70 0 70 100 0 100 0 0 -70z m320 0 l0 -70 -100 0 -100 0 0 70
0 70 100 0 100 0 0 -70z m-6320 -145 l0 -145 -620 0 -620 0 0 145 0 145 620 0
620 0 0 -145z m1320 0 l0 -145 -615 0 -615 0 0 145 0 145 615 0 615 0 0 -145z
m6155 5 l0 -55 -62 -3 -63 -3 0 61 0 61 63 -3 62 -3 0 -55z m200 0 l0 -55 -60
0 -60 0 -3 44 c-5 68 0 72 65 69 l58 -3 0 -55z m200 0 l0 -55 -60 0 -60 0 -3
44 c-5 68 0 72 65 69 l58 -3 0 -55z m-3150 -135 l0 -70 -100 0 -100 0 -3 59
c-5 89 -7 87 105 84 l98 -3 0 -70z m320 0 l0 -70 -100 0 -100 0 -3 59 c-5 89
-7 87 105 84 l98 -3 0 -70z m315 0 l0 -75 -100 0 -100 0 0 75 0 75 100 0 100
0 0 -75z m320 0 l0 -75 -100 0 -100 0 0 75 0 75 100 0 100 0 0 -75z m320 0 l0
-75 -100 0 -100 0 0 75 0 75 100 0 100 0 0 -75z m320 0 l0 -75 -100 0 -100 0
0 75 0 75 100 0 100 0 0 -75z m1158 -57 l3 -58 -66 0 -65 0 0 53 c0 30 3 57 7
61 4 4 32 6 63 4 l55 -3 3 -57z m200 0 l3 -58 -66 0 -65 0 0 53 c0 30 3 57 7
61 4 4 32 6 63 4 l55 -3 3 -57z m-2948 -218 l0 -70 -105 0 -105 0 0 70 0 70
105 0 105 0 0 -70z m320 0 l0 -70 -105 0 -105 0 0 70 0 70 105 0 105 0 0 -70z
m310 0 l0 -70 -100 0 -100 0 0 70 0 70 100 0 100 0 0 -70z m320 0 l0 -70 -100
0 -100 0 0 70 0 70 100 0 100 0 0 -70z m320 0 l0 -70 -100 0 -100 0 0 70 0 70
100 0 100 0 0 -70z m320 0 l0 -70 -100 0 -100 0 0 70 0 70 100 0 100 0 0 -70z
m-6325 -100 l0 -145 -615 0 -615 0 -3 134 c-1 74 0 141 2 148 4 11 121 13 618
11 l613 -3 0 -145z m1325 0 l0 -150 -615 0 -615 0 0 150 0 150 615 0 615 0 0
-150z m6155 -70 l0 -55 -62 -3 -63 -3 0 61 0 61 63 -3 62 -3 0 -55z m200 0 l0
-55 -60 0 -60 0 -3 44 c-5 68 0 72 65 69 l58 -3 0 -55z m6025 -160 l0 -170
-155 0 -155 0 0 170 0 170 155 0 155 0 0 -170z m450 0 l0 -170 -155 0 -155 0
0 170 0 170 155 0 155 0 0 -170z m440 0 l0 -170 -155 0 -155 0 0 170 0 170
155 0 155 0 0 -170z m-9865 55 l0 -70 -100 0 -100 0 -3 59 c-5 89 -7 87 105
84 l98 -3 0 -70z m320 0 l0 -70 -100 0 -100 0 -3 59 c-5 89 -7 87 105 84 l98
-3 0 -70z m315 0 l0 -75 -100 0 -100 0 0 75 0 75 100 0 100 0 0 -75z m320 0
l0 -75 -100 0 -100 0 0 75 0 75 100 0 100 0 0 -75z m320 0 l0 -75 -100 0 -100
0 0 75 0 75 100 0 100 0 0 -75z m320 0 l0 -75 -100 0 -100 0 0 75 0 75 100 0
100 0 0 -75z m1158 -87 l3 -58 -66 0 -65 0 0 53 c0 30 3 57 7 61 4 4 32 6 63
4 l55 -3 3 -57z m200 0 l3 -58 -66 0 -65 0 0 53 c0 30 3 57 7 61 4 4 32 6 63
4 l55 -3 3 -57z m-7678 -243 l0 -145 -620 0 -620 0 0 145 0 145 620 0 620 0 0
-145z m4730 55 l0 -70 -105 0 -105 0 0 70 0 70 105 0 105 0 0 -70z m320 0 l0
-70 -105 0 -105 0 0 70 0 70 105 0 105 0 0 -70z m310 0 l0 -70 -100 0 -100 0
0 70 0 70 100 0 100 0 0 -70z m320 0 l0 -70 -100 0 -100 0 0 70 0 70 100 0
100 0 0 -70z m640 0 l0 -70 -100 0 -100 0 0 70 0 70 100 0 100 0 0 -70z
m-9590 -210 l0 -160 -155 0 -155 0 0 160 0 160 155 0 155 0 0 -160z m440 0 l0
-161 -152 3 -153 3 -3 158 -3 157 156 0 155 0 0 -160z m450 0 l0 -160 -155 0
-155 0 0 160 0 160 155 0 155 0 0 -160z m9855 10 l0 -55 -62 -3 -63 -3 0 61 0
61 63 -3 62 -3 0 -55z m200 0 l0 -55 -60 0 -60 0 -3 44 c-5 68 0 72 65 69 l58
-3 0 -55z m5583 -142 l2 -168 -155 0 -155 0 0 170 0 171 153 -3 152 -3 3 -167z
m442 2 l0 -170 -155 0 -155 0 0 163 c0 90 3 167 7 170 3 4 73 7 155 7 l148 0
0 -170z m448 -2 l2 -168 -155 0 -155 0 0 170 0 171 153 -3 152 -3 3 -167z
m442 2 l0 -170 -155 0 -155 0 0 163 c0 90 3 167 7 170 3 4 73 7 155 7 l148 0
0 -170z m-9865 65 l0 -70 -100 0 -100 0 -3 59 c-5 89 -7 87 105 84 l98 -3 0
-70z m320 0 l0 -70 -100 0 -100 0 -3 59 c-5 89 -7 87 105 84 l98 -3 0 -70z
m315 0 l0 -75 -100 0 -100 0 0 75 0 75 100 0 100 0 0 -75z m320 0 l0 -75 -100
0 -100 0 0 75 0 75 100 0 100 0 0 -75z m320 0 l0 -75 -100 0 -100 0 0 75 0 75
100 0 100 0 0 -75z m320 0 l0 -75 -100 0 -100 0 0 75 0 75 100 0 100 0 0 -75z
m1158 -117 l3 -58 -66 0 -65 0 0 53 c0 30 3 57 7 61 4 4 32 6 63 4 l55 -3 3
-57z m200 0 l3 -58 -66 0 -65 0 0 53 c0 30 3 57 7 61 4 4 32 6 63 4 l55 -3 3
-57z m-7678 -163 l0 -145 -620 0 -620 0 0 145 0 145 620 0 620 0 0 -145z
m1320 0 l0 -145 -615 0 -615 0 0 145 0 145 615 0 615 0 0 -145z m3410 5 l0
-70 -105 0 -105 0 0 70 0 70 105 0 105 0 0 -70z m320 0 l0 -70 -105 0 -105 0
0 70 0 70 105 0 105 0 0 -70z m310 0 l0 -70 -100 0 -100 0 0 70 0 70 100 0
100 0 0 -70z m320 0 l0 -70 -100 0 -100 0 0 70 0 70 100 0 100 0 0 -70z m320
0 l0 -70 -100 0 -100 0 0 70 0 70 100 0 100 0 0 -70z m320 0 l0 -70 -100 0
-100 0 0 70 0 70 100 0 100 0 0 -70z m4418 -82 l-3 -143 -1337 -3 -1338 -2 0
145 0 145 1340 0 1341 0 -3 -142z m-14008 -108 l0 -160 -155 0 -155 0 0 160 0
160 155 0 155 0 0 -160z m440 0 l0 -160 -155 0 -155 0 0 160 0 160 155 0 155
0 0 -160z m450 0 l0 -160 -155 0 -155 0 0 160 0 160 155 0 155 0 0 -160z m450
0 l0 -160 -155 0 -155 0 0 160 0 160 155 0 155 0 0 -160z m9405 -40 l0 -55
-62 -3 -63 -3 0 61 0 61 63 -3 62 -3 0 -55z m200 0 l0 -55 -60 0 -60 0 -3 44
c-5 68 0 72 65 69 l58 -3 0 -55z m5583 -127 l-3 -168 -152 -3 -153 -3 0 171 0
170 155 0 155 0 -2 -167z m442 -3 l0 -171 -152 3 -153 3 -3 168 -2 167 155 0
155 0 0 -170z m448 3 l-3 -168 -152 -3 -153 -3 0 171 0 170 155 0 155 0 -2
-167z m-9420 85 l-3 -73 -100 0 -100 0 -3 73 -3 72 106 0 106 0 -3 -72z m320
0 l-3 -73 -100 0 -100 0 -3 73 -3 72 106 0 106 0 -3 -72z m312 -3 l0 -75 -100
0 -100 0 0 75 0 75 100 0 100 0 0 -75z m320 0 l0 -75 -100 0 -100 0 0 75 0 75
100 0 100 0 0 -75z m320 0 l0 -75 -100 0 -100 0 0 75 0 75 100 0 100 0 0 -75z
m320 0 l0 -75 -100 0 -100 0 0 75 0 75 100 0 100 0 0 -75z m-4360 -230 l0
-175 -75 0 -75 0 0 175 0 175 75 0 75 0 0 -175z m300 0 l0 -175 -75 0 -75 0 0
175 0 175 75 0 75 0 0 -175z m300 0 l0 -175 -75 0 -75 0 0 175 0 175 75 0 75
0 0 -175z m300 0 l0 -175 -75 0 -75 0 0 175 0 175 75 0 75 0 0 -175z m610 0
l0 -175 -75 0 -75 0 0 175 0 175 75 0 75 0 0 -175z m-3475 -5 l0 -145 -615 0
-615 0 -3 134 c-1 74 0 141 2 148 4 11 121 13 618 11 l613 -3 0 -145z m1325 0
l0 -150 -615 0 -615 0 0 150 0 150 615 0 615 0 0 -150z m3410 -40 l0 -70 -105
0 -105 0 0 70 0 70 105 0 105 0 0 -70z m320 0 l0 -70 -105 0 -105 0 0 70 0 70
105 0 105 0 0 -70z m310 0 l0 -70 -100 0 -100 0 0 70 0 70 100 0 100 0 0 -70z
m320 0 l0 -70 -100 0 -100 0 0 70 0 70 100 0 100 0 0 -70z m320 0 l0 -70 -100
0 -100 0 0 70 0 70 100 0 100 0 0 -70z m320 0 l0 -70 -100 0 -100 0 0 70 0 70
100 0 100 0 0 -70z m-9150 -170 l0 -160 -155 0 -155 0 0 153 c0 85 3 157 7
160 3 4 73 7 155 7 l148 0 0 -160z m450 0 l0 -160 -155 0 -155 0 0 160 0 160
155 0 155 0 0 -160z m448 -2 l3 -158 -156 0 -155 0 0 160 0 161 153 -3 152 -3
3 -157z m9410 105 l-3 -58 -60 0 -60 0 -3 58 -3 57 66 0 66 0 -3 -57z m200 0
l-3 -58 -60 0 -60 0 -3 58 -3 57 66 0 66 0 -3 -57z m-2950 -205 l-3 -73 -100
0 -100 0 -3 73 -3 72 106 0 106 0 -3 -72z m632 -3 l0 -75 -100 0 -100 0 0 75
0 75 100 0 100 0 0 -75z m320 0 l0 -75 -100 0 -100 0 0 75 0 75 100 0 100 0 0
-75z m320 0 l0 -75 -100 0 -100 0 0 75 0 75 100 0 100 0 0 -75z m320 0 l0 -75
-100 0 -100 0 0 75 0 75 100 0 100 0 0 -75z m1155 15 l0 -55 -62 -3 -63 -3 0
61 0 61 63 -3 62 -3 0 -55z m200 0 l0 -55 -60 0 -60 0 -3 44 c-5 68 0 72 65
69 l58 -3 0 -55z m6475 -45 l0 -105 -75 0 -75 0 0 80 0 80 -80 0 c-79 0 -80 0
-80 25 l0 25 155 0 155 0 0 -105z m440 5 l0 -100 -68 0 c-63 0 -71 -2 -97 -30
-36 -38 -75 -41 -75 -6 0 21 -6 25 -32 28 l-33 3 -3 103 -3 102 156 0 155 0 0
-100z m-13270 -165 l0 -145 -615 0 -615 0 0 145 0 145 615 0 615 0 0 -145z
m9418 -2 l3 -143 -1341 0 -1340 0 0 145 0 145 1338 -2 1337 -3 3 -142z m-8780
-80 l-3 -178 -72 -3 -73 -3 0 181 0 180 75 0 75 0 -2 -177z m302 -3 l0 -181
-72 3 -73 3 -3 178 -2 177 75 0 75 0 0 -180z m300 0 l0 -181 -72 3 -73 3 -3
165 c-1 90 0 170 2 177 4 9 28 13 76 13 l70 0 0 -180z m300 0 l0 -181 -72 3
-73 3 -3 165 c-1 90 0 170 2 177 4 9 28 13 76 13 l70 0 0 -180z m305 0 l0
-175 -72 -3 -73 -3 0 181 0 181 73 -3 72 -3 0 -175z m303 3 l-3 -178 -72 -3
-73 -3 0 181 0 180 75 0 75 0 -2 -177z m1260 0 l3 -73 -106 0 -105 0 0 68 c0
38 3 72 7 76 4 4 50 5 103 4 l95 -3 3 -72z m320 0 l3 -73 -106 0 -105 0 0 68
c0 38 3 72 7 76 4 4 50 5 103 4 l95 -3 3 -72z m312 2 l0 -75 -100 0 -100 0 0
68 c0 38 3 72 7 75 3 4 48 7 100 7 l93 0 0 -75z m320 0 l0 -75 -100 0 -100 0
0 68 c0 38 3 72 7 75 3 4 48 7 100 7 l93 0 0 -75z m320 0 l0 -75 -100 0 -100
0 0 75 0 75 100 0 100 0 0 -75z m320 0 l0 -75 -100 0 -100 0 0 75 0 75 100 0
100 0 0 -75z m-9590 -155 l0 -160 -155 0 -155 0 0 160 0 160 155 0 155 0 0
-160z m440 0 l0 -160 -155 0 -155 0 0 153 c0 85 3 157 7 160 3 4 73 7 155 7
l148 0 0 -160z m450 0 l0 -160 -155 0 -155 0 0 160 0 160 155 0 155 0 0 -160z
m448 -2 l3 -158 -156 0 -155 0 0 160 0 161 153 -3 152 -3 3 -157z m9410 55
l-3 -58 -60 0 -60 0 -3 58 -3 57 66 0 66 0 -3 -57z m200 0 l-3 -58 -60 0 -60
0 -3 58 -3 57 66 0 66 0 -3 -57z m-13158 -73 l0 -90 -510 0 -510 0 0 90 0 90
510 0 510 0 0 -90z m1090 0 l0 -90 -510 0 -510 0 0 83 c0 46 3 87 7 90 3 4
233 7 510 7 l503 0 0 -90z m24210 -35 l0 -85 -510 0 -510 0 0 85 0 85 510 0
510 0 0 -85z m-15092 -67 l-3 -73 -100 0 -100 0 -3 73 -3 72 106 0 106 0 -3
-72z m320 0 l-3 -73 -100 0 -100 0 -3 73 -3 72 106 0 106 0 -3 -72z m312 -3
l0 -75 -100 0 -100 0 0 75 0 75 100 0 100 0 0 -75z m320 0 l0 -75 -100 0 -100
0 0 75 0 75 100 0 100 0 0 -75z m320 0 l0 -75 -100 0 -100 0 0 75 0 75 100 0
100 0 0 -75z m320 0 l0 -75 -100 0 -100 0 0 75 0 75 100 0 100 0 0 -75z m1155
-15 l0 -55 -62 -3 -63 -3 0 61 0 61 63 -3 62 -3 0 -55z m200 0 l0 -55 -60 0
-60 0 -3 44 c-5 68 0 72 65 69 l58 -3 0 -55z m8190 0 l0 -55 -645 0 -645 0 -3
44 c-2 24 -1 50 2 57 5 12 106 14 648 12 l643 -3 0 -55z m-5127 -92 l-3 -143
-1337 -3 -1338 -2 0 145 0 145 1340 0 1341 0 -3 -142z m-10738 -33 l0 -145
-620 0 -620 0 0 145 0 145 620 0 620 0 0 -145z m1320 0 l0 -145 -615 0 -615 0
0 145 0 145 615 0 615 0 0 -145z m12945 50 l0 -50 -552 -3 -553 -2 0 55 0 55
553 -2 552 -3 0 -50z m-19745 -105 l0 -90 -510 0 -510 0 0 90 0 90 510 0 510
0 0 -90z m1090 0 l0 -90 -510 0 -510 0 0 83 c0 46 3 87 7 90 3 4 233 7 510 7
l503 0 0 -90z m17408 38 l-3 -53 -537 -3 -538 -2 0 55 0 55 541 0 540 0 -3
-52z m-11060 -160 l2 -178 -75 0 -75 0 0 180 0 181 73 -3 72 -3 3 -177z m302
2 l0 -180 -75 0 -75 0 0 173 c0 96 3 177 7 180 3 4 37 7 75 7 l68 0 0 -180z
m300 0 l0 -181 -72 3 -73 3 -3 165 c-1 90 0 170 2 177 4 9 28 13 76 13 l70 0
0 -180z m605 0 l0 -175 -72 -3 -73 -3 0 181 0 181 73 -3 72 -3 0 -175z m303
-2 l2 -178 -75 0 -75 0 0 180 0 181 73 -3 72 -3 3 -177z m12392 117 l0 -55
-640 0 -640 0 0 55 0 55 640 0 640 0 0 -55z m3960 -30 l0 -85 -510 0 -510 0 0
85 0 85 510 0 510 0 0 -85z m1090 0 l0 -85 -510 0 -510 0 0 85 0 85 510 0 510
0 0 -85z m-16182 -42 l3 -73 -106 0 -105 0 0 68 c0 38 3 72 7 76 4 4 50 5 103
4 l95 -3 3 -72z m320 0 l3 -73 -106 0 -105 0 0 68 c0 38 3 72 7 76 4 4 50 5
103 4 l95 -3 3 -72z m312 2 l0 -75 -100 0 -100 0 0 68 c0 38 3 72 7 75 3 4 48
7 100 7 l93 0 0 -75z m320 0 l0 -75 -100 0 -100 0 0 68 c0 38 3 72 7 75 3 4
48 7 100 7 l93 0 0 -75z m320 0 l0 -75 -100 0 -100 0 0 75 0 75 100 0 100 0 0
-75z m320 0 l0 -75 -100 0 -100 0 0 75 0 75 100 0 100 0 0 -75z m7945 10 l0
-50 -552 -3 -553 -2 0 55 0 55 553 -2 552 -3 0 -50z m-17537 -147 l3 -158
-156 0 -155 0 0 160 0 161 153 -3 152 -3 3 -157z m442 2 l0 -160 -155 0 -155
0 0 153 c0 85 3 157 7 160 3 4 73 7 155 7 l148 0 0 -160z m448 -2 l3 -158
-156 0 -155 0 0 160 0 161 153 -3 152 -3 3 -157z m450 0 l3 -158 -156 0 -155
0 0 160 0 161 153 -3 152 -3 3 -157z m14950 80 l-3 -53 -537 -3 -538 -2 0 55
0 55 541 0 540 0 -3 -52z m2842 -63 l0 -55 -640 0 -640 0 0 55 0 55 640 0 640
0 0 -55z m-8382 -12 l-3 -58 -60 0 -60 0 -3 58 -3 57 66 0 66 0 -3 -57z m200
0 l-3 -58 -60 0 -60 0 -3 58 -3 57 66 0 66 0 -3 -57z m-12068 -93 l0 -90 -507
2 -508 3 -3 88 -3 87 511 0 510 0 0 -90z m15128 -82 l-3 -143 -1337 -3 -1338
-2 0 145 0 145 1340 0 1341 0 -3 -142z m9080 50 l3 -88 -511 0 -510 0 0 90 0
90 508 -2 507 -3 3 -87z m1092 2 l0 -90 -510 0 -510 0 0 90 0 90 510 0 510 0
0 -90z m-7890 25 l0 -55 -540 0 -540 0 0 55 0 55 540 0 540 0 0 -55z m-8292
-47 l-3 -73 -100 0 -100 0 -3 73 -3 72 106 0 106 0 -3 -72z m320 0 l-3 -73
-100 0 -100 0 -3 73 -3 72 106 0 106 0 -3 -72z m312 -3 l0 -76 -97 3 -98 3 -3
73 -3 72 101 0 100 0 0 -75z m320 0 l0 -76 -97 3 -98 3 -3 73 -3 72 101 0 100
0 0 -75z m320 0 l0 -75 -100 0 -100 0 0 75 0 75 100 0 100 0 0 -75z m320 0 l0
-75 -100 0 -100 0 0 75 0 75 100 0 100 0 0 -75z m-6320 -100 l0 -145 -620 0
-620 0 0 145 0 145 620 0 620 0 0 -145z m1320 0 l0 -145 -615 0 -615 0 0 145
0 145 615 0 615 0 0 -145z m14540 70 l0 -55 -640 0 -640 0 0 55 0 55 640 0
640 0 0 -55z m-8385 -15 l0 -55 -62 -3 -63 -3 0 61 0 61 63 -3 62 -3 0 -55z
m200 0 l0 -55 -60 0 -60 0 -3 44 c-5 68 0 72 65 69 l58 -3 0 -55z m-16715 -35
l0 -75 -325 0 -325 0 0 75 0 75 325 0 325 0 0 -75z m23305 20 l0 -50 -552 -3
-553 -2 0 55 0 55 553 -2 552 -3 0 -50z m-19745 -185 l0 -90 -510 0 -510 0 0
90 0 90 510 0 510 0 0 -90z m1090 0 l0 -90 -507 2 -508 3 -3 88 -3 87 511 0
510 0 0 -90z m18655 15 l0 -50 -552 -3 -553 -2 0 55 0 55 553 -2 552 -3 0 -50z
m-12305 -130 l0 -175 -75 0 -75 0 0 175 0 175 75 0 75 0 0 -175z m600 0 l0
-175 -75 0 -75 0 0 175 0 175 75 0 75 0 0 -175z m300 0 l0 -175 -75 0 -75 0 0
175 0 175 75 0 75 0 0 -175z m310 0 l0 -175 -75 0 -75 0 0 175 0 175 75 0 75
0 0 -175z m300 0 l0 -175 -75 0 -75 0 0 175 0 175 75 0 75 0 0 -175z m17440
85 l0 -90 -510 0 -510 0 0 90 0 90 510 0 510 0 0 -90z m-16182 3 l3 -73 -106
0 -105 0 0 68 c0 38 3 72 7 76 4 4 50 5 103 4 l95 -3 3 -72z m320 0 l3 -73
-106 0 -105 0 0 68 c0 38 3 72 7 76 4 4 50 5 103 4 l95 -3 3 -72z m312 2 l0
-75 -100 0 -100 0 0 68 c0 38 3 72 7 75 3 4 48 7 100 7 l93 0 0 -75z m320 0
l0 -75 -100 0 -100 0 0 68 c0 38 3 72 7 75 3 4 48 7 100 7 l93 0 0 -75z m320
0 l0 -75 -100 0 -100 0 0 75 0 75 100 0 100 0 0 -75z m320 0 l0 -75 -100 0
-100 0 0 75 0 75 100 0 100 0 0 -75z m-9595 -120 l0 -160 -152 -3 -153 -3 0
166 0 166 153 -3 152 -3 0 -160z m445 0 l0 -166 -152 3 -153 3 -3 150 c-1 82
0 155 2 162 4 10 42 13 156 13 l150 0 0 -165z m445 0 l0 -160 -152 -3 -153 -3
0 166 0 166 153 -3 152 -3 0 -160z m450 0 l0 -160 -152 -3 -153 -3 0 166 0
166 153 -3 152 -3 0 -160z m14953 98 l3 -53 -540 0 -541 0 0 55 0 55 538 -2
537 -3 3 -52z m-22748 -48 l0 -75 -330 0 -330 0 0 75 0 75 330 0 330 0 0 -75z
m690 0 l0 -75 -325 0 -325 0 0 75 0 75 325 0 325 0 0 -75z m25738 -87 l-3
-103 -95 0 -95 0 -3 103 -3 102 101 0 101 0 -3 -102z m277 -3 l0 -100 -95 0
-95 0 -3 103 -3 103 98 -3 98 -3 0 -100z m280 0 l0 -100 -97 -3 -98 -3 0 106
0 106 98 -3 97 -3 0 -100z m275 0 l0 -105 -95 0 -95 0 0 105 0 105 95 0 95 0
0 -105z m-3265 20 l0 -50 -552 -3 -553 -2 0 55 0 55 553 -2 552 -3 0 -50z
m1595 5 l0 -50 -640 0 -640 0 0 50 0 50 640 0 640 0 0 -50z m-8382 -27 l-3
-58 -60 0 -60 0 -3 58 -3 57 66 0 66 0 -3 -57z m-15668 -53 l0 -100 -95 0 -95
0 0 100 0 100 95 0 95 0 0 -100z m278 -2 l3 -98 -101 0 -100 0 0 100 0 101 98
-3 97 -3 3 -97z m272 2 l0 -100 -95 0 -95 0 0 100 0 100 95 0 95 0 0 -100z
m278 -2 l3 -98 -101 0 -100 0 0 93 c0 52 3 97 7 101 4 4 48 5 98 4 l90 -3 3
-97z m20380 25 l3 -53 -540 0 -541 0 0 55 0 55 538 -2 537 -3 3 -52z m-18498
-78 l0 -85 -510 0 -510 0 0 85 0 85 510 0 510 0 0 -85z m1090 0 l0 -85 -510 0
-510 0 0 85 0 85 510 0 510 0 0 -85z m4390 -60 l0 -145 -620 0 -620 0 0 145 0
145 620 0 620 0 0 -145z m1320 0 l0 -145 -615 0 -615 0 0 145 0 145 615 0 615
0 0 -145z m3408 53 l-3 -73 -100 0 -100 0 -3 73 -3 72 106 0 106 0 -3 -72z
m320 0 l-3 -73 -100 0 -100 0 -3 73 -3 72 106 0 106 0 -3 -72z m312 -3 l0 -76
-97 3 -98 3 -3 73 -3 72 101 0 100 0 0 -75z m320 0 l0 -76 -97 3 -98 3 -3 73
-3 72 101 0 100 0 0 -75z m320 0 l0 -75 -100 0 -100 0 0 75 0 75 100 0 100 0
0 -75z m320 0 l0 -75 -100 0 -100 0 0 75 0 75 100 0 100 0 0 -75z m13500 -25
l0 -90 -510 0 -510 0 0 90 0 90 510 0 510 0 0 -90z m1090 0 l0 -90 -510 0
-510 0 0 90 0 90 510 0 510 0 0 -90z m-30645 -30 l0 -75 -325 0 -325 0 -3 64
c-2 35 -1 70 2 78 5 11 62 13 328 11 l323 -3 0 -75z m693 3 l-3 -78 -322 -3
-323 -2 0 80 0 80 325 0 326 0 -3 -77z m23307 22 l0 -50 -552 -3 -553 -2 0 55
0 55 553 -2 552 -3 0 -50z m1595 -10 l0 -55 -640 0 -640 0 0 55 0 55 640 0
640 0 0 -55z m-8385 -35 l0 -55 -62 -3 -63 -3 0 61 0 61 63 -3 62 -3 0 -55z
m200 0 l0 -55 -60 0 -60 0 -3 44 c-5 68 0 72 65 69 l58 -3 0 -55z m5343 -7 l3
-53 -540 0 -541 0 0 55 0 55 538 -2 537 -3 3 -52z m3680 -130 l3 -103 -101 0
-100 0 0 98 c0 54 3 102 7 106 4 4 48 5 98 4 l90 -3 3 -102z m277 2 l0 -100
-97 -3 -98 -3 0 99 c0 54 3 102 7 106 4 4 48 5 98 4 l90 -3 0 -100z m280 0 l0
-100 -97 -3 -98 -3 0 106 0 106 98 -3 97 -3 0 -100z m275 0 l0 -105 -95 0 -95
0 0 105 0 105 95 0 95 0 0 -105z m-3260 5 l0 -50 -555 0 -555 0 0 50 0 50 555
0 555 0 0 -50z m-22460 -60 l0 -100 -95 0 -95 0 0 100 0 100 95 0 95 0 0 -100z
m550 0 l0 -100 -95 0 -95 0 0 100 0 100 95 0 95 0 0 -100z m278 3 l-3 -98 -95
0 -95 0 -3 98 -3 97 101 0 101 0 -3 -97z m23222 32 l0 -55 -640 0 -640 0 0 55
0 55 640 0 640 0 0 -55z m-11132 -42 l3 -73 -106 0 -105 0 0 68 c0 38 3 72 7
76 4 4 50 5 103 4 l95 -3 3 -72z m320 0 l3 -73 -106 0 -105 0 0 68 c0 38 3 72
7 76 4 4 50 5 103 4 l95 -3 3 -72z m312 2 l0 -75 -100 0 -100 0 0 68 c0 38 3
72 7 75 3 4 48 7 100 7 l93 0 0 -75z m320 0 l0 -75 -100 0 -100 0 0 68 c0 38
3 72 7 75 3 4 48 7 100 7 l93 0 0 -75z m320 0 l0 -75 -100 0 -100 0 0 75 0 75
100 0 100 0 0 -75z m320 0 l0 -75 -100 0 -100 0 0 75 0 75 100 0 100 0 0 -75z
m-11800 -20 l0 -85 -510 0 -510 0 0 85 0 85 510 0 510 0 0 -85z m1090 0 l0
-85 -510 0 -510 0 0 85 0 85 510 0 510 0 0 -85z m1118 -82 l-3 -158 -152 -3
-153 -3 0 161 0 160 155 0 156 0 -3 -157z m890 0 l-3 -158 -152 -3 -153 -3 0
161 0 160 155 0 156 0 -3 -157z m450 0 l-3 -158 -152 -3 -153 -3 0 161 0 160
155 0 156 0 -3 -157z m3892 -28 l0 -175 -75 0 -75 0 0 175 0 175 75 0 75 0 0
-175z m300 0 l0 -175 -75 0 -75 0 0 175 0 175 75 0 75 0 0 -175z m300 0 l0
-175 -75 0 -75 0 0 175 0 175 75 0 75 0 0 -175z m300 0 l0 -175 -75 0 -75 0 0
175 0 175 75 0 75 0 0 -175z m310 0 l0 -175 -75 0 -75 0 0 175 0 175 75 0 75
0 0 -175z m300 0 l0 -175 -75 0 -75 0 0 175 0 175 75 0 75 0 0 -175z m-13205
85 l0 -75 -325 0 -325 0 -3 64 c-2 35 -1 70 2 78 5 11 62 13 328 11 l323 -3 0
-75z m29553 -7 l-3 -88 -507 -3 -508 -2 0 90 0 90 510 0 511 0 -3 -87z m1092
-3 l0 -90 -510 0 -510 0 0 90 0 90 510 0 510 0 0 -90z m-10172 -87 l3 -143
-1341 0 -1340 0 0 145 0 145 1338 -2 1337 -3 3 -142z m3527 32 l0 -50 -552 -3
-553 -2 0 55 0 55 553 -2 552 -3 0 -50z m1595 -40 l0 -55 -640 0 -640 0 0 55
0 55 640 0 640 0 0 -55z m-2840 -5 l0 -50 -540 0 -540 0 0 50 0 50 540 0 540
0 0 -50z m-13020 -125 l0 -145 -620 0 -620 0 0 145 0 145 620 0 620 0 0 -145z
m1320 0 l0 -145 -615 0 -615 0 0 145 0 145 615 0 615 0 0 -145z m6158 88 l-3
-58 -60 0 -60 0 -3 58 -3 57 66 0 66 0 -3 -57z m200 0 l-3 -58 -60 0 -60 0 -3
58 -3 57 66 0 66 0 -3 -57z m9022 -83 l0 -100 -100 0 -100 0 0 100 0 100 100
0 100 0 0 -100z m280 0 l0 -100 -100 0 -100 0 0 100 0 100 100 0 100 0 0 -100z
m280 0 l0 -100 -100 0 -100 0 0 100 0 100 100 0 100 0 0 -100z m-12532 -2 l-3
-73 -100 0 -100 0 -3 73 -3 72 106 0 106 0 -3 -72z m320 0 l-3 -73 -100 0
-100 0 -3 73 -3 72 106 0 106 0 -3 -72z m312 -3 l0 -76 -97 3 -98 3 -3 73 -3
72 101 0 100 0 0 -75z m320 0 l0 -76 -97 3 -98 3 -3 73 -3 72 101 0 100 0 0
-75z m320 0 l0 -75 -100 0 -100 0 0 75 0 75 100 0 100 0 0 -75z m320 0 l0 -75
-100 0 -100 0 0 75 0 75 100 0 100 0 0 -75z m-16055 -25 l0 -75 -325 0 -325 0
-3 64 c-2 35 -1 70 2 78 5 11 62 13 328 11 l323 -3 0 -75z m690 0 l0 -75 -322
-3 -323 -2 0 80 0 80 323 -2 322 -3 0 -75z m855 -20 l0 -100 -95 0 -95 0 0
100 0 100 95 0 95 0 0 -100z m278 3 l-3 -98 -97 -3 -98 -3 0 101 0 100 100 0
101 0 -3 -97z m272 -3 l0 -100 -95 0 -95 0 0 100 0 100 95 0 95 0 0 -100z
m278 3 l-3 -98 -95 0 -95 0 -3 98 -3 97 101 0 101 0 -3 -97z m21627 42 l0 -50
-552 -3 -553 -2 0 55 0 55 553 -2 552 -3 0 -50z m-19745 -40 l0 -85 -510 0
-510 0 0 85 0 85 510 0 510 0 0 -85z m1090 0 l0 -85 -510 0 -510 0 0 85 0 85
510 0 510 0 0 -85z m24208 -32 l-3 -88 -507 -3 -508 -2 0 90 0 90 510 0 511 0
-3 -87z m1092 -3 l0 -90 -510 0 -510 0 0 90 0 90 510 0 510 0 0 -90z m-7892
28 l-3 -53 -537 -3 -538 -2 0 55 0 55 541 0 540 0 -3 -52z m2842 -8 l0 -50
-640 0 -640 0 0 50 0 50 640 0 640 0 0 -50z m-8385 -50 l0 -55 -62 -3 -63 -3
0 54 c0 29 3 57 7 61 4 4 32 6 63 4 l55 -3 0 -55z m200 0 l0 -55 -60 0 -60 0
-3 44 c-5 68 0 72 65 69 l58 -3 0 -55z m6595 -70 l0 -50 -555 0 -555 0 0 50 0
50 555 0 555 0 0 -50z m-1252 -42 l-3 -53 -537 -3 -538 -2 0 55 0 55 541 0
540 0 -3 -52z m-2280 -110 l-3 -143 -1337 -3 -1338 -2 0 145 0 145 1340 0
1341 0 -3 -142z m-14008 -28 l0 -160 -155 0 -155 0 0 160 0 160 155 0 155 0 0
-160z m440 0 l0 -161 -152 3 -153 3 -3 158 -3 157 156 0 155 0 0 -160z m450 0
l0 -160 -155 0 -155 0 0 160 0 160 155 0 155 0 0 -160z m448 3 l-3 -158 -152
-3 -153 -3 0 161 0 160 155 0 156 0 -3 -157z m6660 80 l3 -73 -106 0 -105 0 0
68 c0 38 3 72 7 76 4 4 50 5 103 4 l95 -3 3 -72z m320 0 l3 -73 -106 0 -105 0
0 68 c0 38 3 72 7 76 4 4 50 5 103 4 l95 -3 3 -72z m312 2 l0 -75 -100 0 -100
0 0 68 c0 38 3 72 7 75 3 4 48 7 100 7 l93 0 0 -75z m320 0 l0 -75 -100 0
-100 0 0 68 c0 38 3 72 7 75 3 4 48 7 100 7 l93 0 0 -75z m320 0 l0 -75 -100
0 -100 0 0 75 0 75 100 0 100 0 0 -75z m320 0 l0 -75 -100 0 -100 0 0 75 0 75
100 0 100 0 0 -75z m9540 25 l0 -50 -640 0 -640 0 0 50 0 50 640 0 640 0 0
-50z m-25595 -40 l0 -75 -325 0 -325 0 -3 64 c-2 35 -1 70 2 78 5 11 62 13
328 11 l323 -3 0 -75z m693 -2 l3 -78 -326 0 -325 0 0 80 0 80 323 -2 322 -3
3 -77z m25742 -38 l0 -100 -100 0 -100 0 0 100 0 100 100 0 100 0 0 -100z
m280 0 l0 -100 -100 0 -100 0 0 100 0 100 100 0 100 0 0 -100z m280 0 l0 -100
-100 0 -100 0 0 100 0 100 100 0 100 0 0 -100z m270 0 l0 -100 -95 0 -95 0 0
100 0 100 95 0 95 0 0 -100z m-23010 -10 l0 -90 -510 0 -510 0 0 90 0 90 510
0 510 0 0 -90z m7438 -107 l-3 -178 -72 -3 -73 -3 0 181 0 180 75 0 75 0 -2
-177z m302 -3 l0 -181 -72 3 -73 3 -3 178 -2 177 75 0 75 0 0 -180z m300 0 l0
-181 -72 3 -73 3 -3 178 -2 177 75 0 75 0 0 -180z m300 0 l0 -181 -72 3 -73 3
-3 178 -2 177 75 0 75 0 0 -180z m308 3 l-3 -178 -72 -3 -73 -3 0 181 0 180
75 0 75 0 -2 -177z m300 0 l-3 -178 -72 -3 -73 -3 0 181 0 180 75 0 75 0 -2
-177z m-11660 70 l-3 -98 -92 -3 -93 -3 0 101 0 100 95 0 96 0 -3 -97z m280 0
l-3 -98 -95 0 -95 0 -3 98 -3 97 101 0 101 0 -3 -97z m272 -3 l0 -100 -95 0
-95 0 0 100 0 100 95 0 95 0 0 -100z m278 3 l-3 -98 -95 0 -95 0 -3 98 -3 97
101 0 101 0 -3 -97z m27182 2 l0 -85 -510 0 -510 0 0 85 0 85 510 0 510 0 0
-85z m1090 0 l0 -85 -510 0 -510 0 0 85 0 85 510 0 510 0 0 -85z m-7892 -17
l-3 -53 -537 -3 -538 -2 0 55 0 55 541 0 540 0 -3 -52z m-13018 -123 l0 -145
-620 0 -620 0 0 145 0 145 620 0 620 0 0 -145z m1320 0 l0 -145 -615 0 -615 0
0 145 0 145 615 0 615 0 0 -145z m14540 80 l0 -55 -640 0 -640 0 0 55 0 55
640 0 640 0 0 -55z m-8382 -62 l-3 -58 -60 0 -60 0 -3 58 -3 57 66 0 66 0 -3
-57z m200 0 l-3 -58 -60 0 -60 0 -3 58 -3 57 66 0 66 0 -3 -57z m6587 -28 l0
-50 -552 -3 -553 -2 0 55 0 55 553 -2 552 -3 0 -50z m-23997 -27 l-3 -73 -325
0 -325 0 -3 73 -3 72 331 0 331 0 -3 -72z m692 -3 l0 -75 -325 0 -325 0 0 75
0 75 325 0 325 0 0 -75z m13768 3 l-3 -73 -100 0 -100 0 -3 73 -3 72 106 0
106 0 -3 -72z m320 0 l-3 -73 -100 0 -100 0 -3 73 -3 72 106 0 106 0 -3 -72z
m312 -3 l0 -76 -97 3 -98 3 -3 73 -3 72 101 0 100 0 0 -75z m320 0 l0 -76 -97
3 -98 3 -3 73 -3 72 101 0 100 0 0 -75z m320 0 l0 -75 -100 0 -100 0 0 75 0
75 100 0 100 0 0 -75z m7015 -10 l0 -50 -537 -3 -538 -2 0 55 0 55 538 -2 537
-3 0 -50z m-18495 -75 l0 -90 -510 0 -510 0 0 90 0 90 510 0 510 0 0 -90z
m1090 0 l0 -90 -510 0 -510 0 0 83 c0 46 3 87 7 90 3 4 233 7 510 7 l503 0 0
-90z m21085 -25 l0 -100 -95 0 -95 0 -3 89 c-2 49 0 96 2 103 4 11 27 13 98
11 l93 -3 0 -100z m280 0 l0 -100 -95 0 -95 0 -3 89 c-2 49 0 96 2 103 4 11
27 13 98 11 l93 -3 0 -100z m280 0 l0 -100 -97 -3 -98 -3 0 106 0 106 98 -3
97 -3 0 -100z m275 0 l0 -105 -95 0 -95 0 0 105 0 105 95 0 95 0 0 -105z
m-1670 40 l0 -55 -640 0 -640 0 0 55 0 55 640 0 640 0 0 -55z m3960 -50 l0
-85 -510 0 -510 0 0 85 0 85 510 0 510 0 0 -85z m1090 0 l0 -85 -510 0 -510 0
0 85 0 85 510 0 510 0 0 -85z m-29102 -27 l3 -98 -96 0 -95 0 0 100 0 101 93
-3 92 -3 3 -97z m280 0 l3 -98 -101 0 -100 0 0 93 c0 52 3 97 7 101 4 4 48 5
98 4 l90 -3 3 -97z m272 2 l0 -100 -95 0 -95 0 0 100 0 100 95 0 95 0 0 -100z
m15115 10 l0 -55 -62 -3 -63 -3 0 54 c0 29 3 57 7 61 4 4 32 6 63 4 l55 -3 0
-55z m200 0 l0 -55 -60 0 -60 0 -3 44 c-5 68 0 72 65 69 l58 -3 0 -55z m3063
-112 l-3 -143 -1337 -3 -1338 -2 0 145 0 145 1340 0 1341 0 -3 -142z m-14008
-88 l0 -160 -155 0 -155 0 0 160 0 160 155 0 155 0 0 -160z m440 0 l0 -161
-152 3 -153 3 -3 158 -3 157 156 0 155 0 0 -160z m450 0 l0 -160 -155 0 -155
0 0 160 0 160 155 0 155 0 0 -160z m448 3 l-3 -158 -152 -3 -153 -3 0 161 0
160 155 0 156 0 -3 -157z m-7798 72 l0 -75 -330 0 -330 0 0 75 0 75 330 0 330
0 0 -75z m690 0 l0 -75 -325 0 -325 0 0 75 0 75 325 0 325 0 0 -75z m13768
-12 l3 -73 -106 0 -105 0 0 68 c0 38 3 72 7 76 4 4 50 5 103 4 l95 -3 3 -72z
m320 0 l3 -73 -106 0 -105 0 0 68 c0 38 3 72 7 76 4 4 50 5 103 4 l95 -3 3
-72z m312 2 l0 -75 -100 0 -100 0 0 68 c0 38 3 72 7 75 3 4 48 7 100 7 l93 0
0 -75z m320 0 l0 -75 -100 0 -100 0 0 68 c0 38 3 72 7 75 3 4 48 7 100 7 l93
0 0 -75z m320 0 l0 -75 -100 0 -100 0 0 75 0 75 100 0 100 0 0 -75z m320 0 l0
-75 -100 0 -100 0 0 75 0 75 100 0 100 0 0 -75z m9540 10 l0 -55 -640 0 -640
0 0 55 0 55 640 0 640 0 0 -55z m-1562 -22 l3 -43 -805 0 -806 0 0 38 c0 21 3
42 7 45 3 4 365 6 802 5 l796 -3 3 -42z m-1658 -18 l0 -35 -395 0 -395 0 0 35
0 35 395 0 395 0 0 -35z m-18120 -85 l0 -90 -510 0 -510 0 0 90 0 90 510 0
510 0 0 -90z m1090 0 l0 -90 -510 0 -510 0 0 90 0 90 510 0 510 0 0 -90z
m6348 -97 l-3 -178 -72 -3 -73 -3 0 181 0 180 75 0 75 0 -2 -177z m302 -3 l0
-181 -72 3 -73 3 -3 178 -2 177 75 0 75 0 0 -180z m600 0 l0 -181 -72 3 -73 3
-3 165 c-1 90 0 170 2 177 4 9 28 13 76 13 l70 0 0 -180z m305 0 l0 -175 -72
-3 -73 -3 0 181 0 181 73 -3 72 -3 0 -175z m303 3 l-3 -178 -72 -3 -73 -3 0
181 0 180 75 0 75 0 -2 -177z m-3468 22 l0 -145 -620 0 -620 0 0 145 0 145
620 0 620 0 0 -145z m1320 0 l0 -145 -615 0 -615 0 0 145 0 145 615 0 615 0 0
-145z m18500 40 l0 -85 -510 0 -510 0 0 85 0 85 510 0 510 0 0 -85z m1090 0
l0 -85 -510 0 -510 0 0 85 0 85 510 0 510 0 0 -85z m-4210 -25 l0 -100 -100 0
-100 0 0 100 0 100 100 0 100 0 0 -100z m278 3 l-3 -98 -97 -3 -98 -3 0 101 0
100 100 0 101 0 -3 -97z m280 0 l-3 -98 -97 -3 -98 -3 0 101 0 100 100 0 101
0 -3 -97z m272 -3 l0 -100 -95 0 -95 0 0 100 0 100 95 0 95 0 0 -100z m-25442
-32 l3 -98 -101 0 -100 0 0 93 c0 52 3 97 7 101 4 4 48 5 98 4 l90 -3 3 -97z
m272 2 l0 -100 -95 0 -95 0 0 100 0 100 95 0 95 0 0 -100z m278 -2 l3 -98
-101 0 -100 0 0 93 c0 52 3 97 7 101 4 4 48 5 98 4 l90 -3 3 -97z m23222 32
l0 -50 -640 0 -640 0 0 50 0 50 640 0 640 0 0 -50z m-1560 -5 l0 -45 -805 0
-805 0 0 45 0 45 805 0 805 0 0 -45z m-24030 -70 l0 -75 -330 0 -330 0 0 75 0
75 330 0 330 0 0 -75z m690 0 l0 -75 -325 0 -325 0 0 75 0 75 325 0 325 0 0
-75z m21680 40 l0 -35 -395 0 -395 0 0 35 0 35 395 0 395 0 0 -35z m-5162 -42
l-3 -58 -60 0 -60 0 -3 58 -3 57 66 0 66 0 -3 -57z m200 0 l-3 -58 -60 0 -60
0 -3 58 -3 57 66 0 66 0 -3 -57z m-2950 -25 l-3 -73 -100 0 -100 0 -3 73 -3
72 106 0 106 0 -3 -72z m320 0 l-3 -73 -100 0 -100 0 -3 73 -3 72 106 0 106 0
-3 -72z m312 -3 l0 -76 -97 3 -98 3 -3 73 -3 72 101 0 100 0 0 -75z m320 0 l0
-76 -97 3 -98 3 -3 73 -3 72 101 0 100 0 0 -75z m320 0 l0 -75 -100 0 -100 0
0 75 0 75 100 0 100 0 0 -75z m320 0 l0 -75 -100 0 -100 0 0 75 0 75 100 0
100 0 0 -75z m4420 -165 l0 -140 -1340 0 -1340 0 0 140 0 140 1340 0 1340 0 0
-140z m5120 80 l0 -50 -640 0 -640 0 0 50 0 50 640 0 640 0 0 -50z m-21340
-50 l0 -90 -510 0 -510 0 0 90 0 90 510 0 510 0 0 -90z m1090 0 l0 -90 -507 2
-508 3 -3 88 -3 87 511 0 510 0 0 -90z m17030 35 l0 -35 -395 0 -395 0 0 35 0
35 395 0 395 0 0 -35z m7178 -67 l3 -88 -511 0 -510 0 0 90 0 90 508 -2 507
-3 3 -87z m-12343 2 l0 -55 -62 -3 -63 -3 0 54 c0 29 3 57 7 61 4 4 32 6 63 4
l55 -3 0 -55z m200 0 l0 -55 -60 0 -60 0 -3 44 c-5 68 0 72 65 69 l58 -3 0
-55z m9025 -60 l0 -100 -100 0 -100 0 0 100 0 100 100 0 100 0 0 -100z m560 0
l0 -100 -100 0 -100 0 0 100 0 100 100 0 100 0 0 -100z m270 0 l0 -100 -95 0
-95 0 0 100 0 100 95 0 95 0 0 -100z m-27260 -5 l0 -75 -330 0 -330 0 0 75 0
75 330 0 330 0 0 -75z m690 0 l0 -75 -325 0 -325 0 0 75 0 75 325 0 325 0 0
-75z m850 -25 l0 -100 -95 0 -95 0 0 100 0 100 95 0 95 0 0 -100z m278 -2 l3
-98 -101 0 -100 0 0 100 0 101 98 -3 97 -3 3 -97z m272 2 l0 -100 -95 0 -95 0
0 100 0 100 95 0 95 0 0 -100z m278 -2 l3 -98 -101 0 -100 0 0 93 c0 52 3 97
7 101 4 4 48 5 98 4 l90 -3 3 -97z m4092 -58 l0 -160 -155 0 -155 0 0 160 0
160 155 0 155 0 0 -160z m440 0 l0 -160 -155 0 -155 0 0 160 0 160 155 0 155
0 0 -160z m450 0 l0 -160 -155 0 -155 0 0 160 0 160 155 0 155 0 0 -160z m450
0 l0 -160 -155 0 -155 0 0 160 0 160 155 0 155 0 0 -160z m6658 43 l3 -73
-106 0 -105 0 0 68 c0 38 3 72 7 76 4 4 50 5 103 4 l95 -3 3 -72z m320 0 l3
-73 -106 0 -105 0 0 68 c0 38 3 72 7 76 4 4 50 5 103 4 l95 -3 3 -72z m312 2
l0 -75 -100 0 -100 0 0 68 c0 38 3 72 7 75 3 4 48 7 100 7 l93 0 0 -75z m320
0 l0 -75 -100 0 -100 0 0 68 c0 38 3 72 7 75 3 4 48 7 100 7 l93 0 0 -75z
m320 0 l0 -75 -100 0 -100 0 0 75 0 75 100 0 100 0 0 -75z m320 0 l0 -75 -100
0 -100 0 0 75 0 75 100 0 100 0 0 -75z m7980 30 l0 -45 -805 0 -805 0 0 45 0
45 805 0 805 0 0 -45z m1560 -30 l0 -55 -640 0 -640 0 0 55 0 55 640 0 640 0
0 -55z m-3220 0 l0 -35 -395 0 -395 0 0 35 0 35 395 0 395 0 0 -35z m-12640
-140 l0 -145 -620 0 -620 0 0 145 0 145 620 0 620 0 0 -145z m1320 0 l0 -145
-615 0 -615 0 0 145 0 145 615 0 615 0 0 -145z m-6800 -25 l0 -90 -510 0 -510
0 0 90 0 90 510 0 510 0 0 -90z m1090 0 l0 -90 -507 2 -508 3 -3 88 -3 87 511
0 510 0 0 -90z m6650 -90 l0 -180 -75 0 -75 0 0 173 c0 96 3 177 7 180 3 4 37
7 75 7 l68 0 0 -180z m300 0 l0 -181 -72 3 -73 3 -3 165 c-1 90 0 170 2 177 4
9 28 13 76 13 l70 0 0 -180z m300 0 l0 -181 -72 3 -73 3 -3 165 c-1 90 0 170
2 177 4 9 28 13 76 13 l70 0 0 -180z m305 0 l0 -175 -72 -3 -73 -3 0 181 0
181 73 -3 72 -3 0 -175z m303 -2 l2 -178 -75 0 -75 0 0 180 0 181 73 -3 72 -3
3 -177z m10832 117 l0 -45 -805 0 -805 0 0 45 0 45 805 0 805 0 0 -45z m5518
-57 l3 -88 -511 0 -510 0 0 90 0 90 508 -2 507 -3 3 -87z m1092 2 l0 -90 -510
0 -510 0 0 90 0 90 510 0 510 0 0 -90z m-5050 5 l0 -55 -640 0 -640 0 0 55 0
55 640 0 640 0 0 -55z m-24900 -30 l0 -75 -325 0 -325 0 0 75 0 75 325 0 325
0 0 -75z m21680 40 l0 -35 -395 0 -395 0 0 35 0 35 395 0 395 0 0 -35z m4060
-105 l0 -100 -100 0 -100 0 0 100 0 100 100 0 100 0 0 -100z m278 -2 l3 -98
-101 0 -100 0 0 100 0 101 98 -3 97 -3 3 -97z m280 0 l3 -98 -101 0 -100 0 0
100 0 101 98 -3 97 -3 3 -97z m272 2 l0 -100 -95 0 -95 0 0 100 0 100 95 0 95
0 0 -100z m-12802 8 l-3 -73 -100 0 -100 0 -3 73 -3 72 106 0 106 0 -3 -72z
m320 0 l-3 -73 -100 0 -100 0 -3 73 -3 72 106 0 106 0 -3 -72z m312 -3 l0 -76
-97 3 -98 3 -3 73 -3 72 101 0 100 0 0 -75z m320 0 l0 -76 -97 3 -98 3 -3 73
-3 72 101 0 100 0 0 -75z m320 0 l0 -75 -100 0 -100 0 0 75 0 75 100 0 100 0
0 -75z m320 0 l0 -75 -100 0 -100 0 0 75 0 75 100 0 100 0 0 -75z m-14510 -35
l0 -100 -95 0 -95 0 0 100 0 100 95 0 95 0 0 -100z m280 0 l0 -100 -100 0
-100 0 0 100 0 100 100 0 100 0 0 -100z m270 0 l0 -100 -95 0 -95 0 0 100 0
100 95 0 95 0 0 -100z m280 0 l0 -100 -100 0 -100 0 0 100 0 100 100 0 100 0
0 -100z m14838 33 l-3 -58 -60 0 -60 0 -3 58 -3 57 66 0 66 0 -3 -57z m200 0
l-3 -58 -60 0 -60 0 -3 58 -3 57 66 0 66 0 -3 -57z m6622 -28 l0 -45 -805 0
-805 0 0 45 0 45 805 0 805 0 0 -45z m-1660 -40 l0 -35 -395 0 -395 0 0 35 0
35 395 0 395 0 0 -35z m-18120 -110 l0 -85 -510 0 -510 0 0 85 0 85 510 0 510
0 0 -85z m1090 0 l0 -85 -510 0 -510 0 0 85 0 85 510 0 510 0 0 -85z m-5342
-22 l3 -73 -331 0 -330 0 0 68 c0 38 3 72 7 75 4 4 151 6 327 5 l321 -3 3 -72z
m692 2 l0 -75 -325 0 -325 0 0 75 0 75 325 0 325 0 0 -75z m28858 -12 l-3 -88
-507 -3 -508 -2 0 90 0 90 510 0 511 0 -3 -87z m1092 -3 l0 -90 -510 0 -510 0
0 90 0 90 510 0 510 0 0 -90z m-24180 -80 l0 -160 -155 0 -155 0 0 160 0 160
155 0 155 0 0 -160z m440 0 l0 -160 -155 0 -155 0 0 160 0 160 155 0 155 0 0
-160z m450 0 l0 -160 -155 0 -155 0 0 160 0 160 155 0 155 0 0 -160z m450 0
l0 -160 -155 0 -155 0 0 160 0 160 155 0 155 0 0 -160z m9405 100 l0 -55 -62
-3 -63 -3 0 54 c0 29 3 57 7 61 4 4 32 6 63 4 l55 -3 0 -55z m200 0 l0 -55
-60 0 -60 0 -3 44 c-5 68 0 72 65 69 l58 -3 0 -55z m-2947 -77 l3 -73 -106 0
-105 0 0 68 c0 38 3 72 7 76 4 4 50 5 103 4 l95 -3 3 -72z m320 0 l3 -73 -106
0 -105 0 0 68 c0 38 3 72 7 76 4 4 50 5 103 4 l95 -3 3 -72z m312 2 l0 -75
-100 0 -100 0 0 68 c0 38 3 72 7 75 3 4 48 7 100 7 l93 0 0 -75z m320 0 l0
-75 -100 0 -100 0 0 68 c0 38 3 72 7 75 3 4 48 7 100 7 l93 0 0 -75z m320 0
l0 -75 -100 0 -100 0 0 75 0 75 100 0 100 0 0 -75z m320 0 l0 -75 -100 0 -100
0 0 75 0 75 100 0 100 0 0 -75z m6320 25 l0 -40 -395 0 -395 0 0 40 0 40 395
0 395 0 0 -40z m-12640 -125 l0 -145 -620 0 -620 0 0 145 0 145 620 0 620 0 0
-145z m1320 0 l0 -145 -615 0 -615 0 0 145 0 145 615 0 615 0 0 -145z m14540
85 l0 -50 -640 0 -640 0 0 50 0 50 640 0 640 0 0 -50z m835 -55 l0 -100 -95 0
-95 0 -3 89 c-2 49 0 96 2 103 4 11 27 13 98 11 l93 -3 0 -100z m280 0 l0
-100 -95 0 -95 0 -3 89 c-2 49 0 96 2 103 4 11 27 13 98 11 l93 -3 0 -100z
m280 0 l0 -100 -97 -3 -98 -3 0 106 0 106 98 -3 97 -3 0 -100z m275 0 l0 -105
-95 0 -95 0 0 105 0 105 95 0 95 0 0 -105z m-25720 -25 l0 -100 -95 0 -95 0 0
100 0 100 95 0 95 0 0 -100z m278 3 l-3 -98 -97 -3 -98 -3 0 101 0 100 100 0
101 0 -3 -97z m272 -3 l0 -100 -95 0 -95 0 0 100 0 100 95 0 95 0 0 -100z
m278 3 l-3 -98 -95 0 -95 0 -3 98 -3 97 101 0 101 0 -3 -97z m21657 -3 l0 -45
-800 0 -800 0 -3 33 c-7 67 -71 62 805 60 l798 -3 0 -45z m-24030 -100 l0 -75
-325 0 -325 0 -3 64 c-2 35 -1 70 2 78 5 11 62 13 328 11 l323 -3 0 -75z m693
3 l-3 -78 -322 -3 -323 -2 0 80 0 80 325 0 326 0 -3 -77z m21682 42 l0 -35
-395 0 -395 0 0 35 0 35 395 0 395 0 0 -35z m-18120 -60 l0 -85 -510 0 -510 0
0 85 0 85 510 0 510 0 0 -85z m1090 0 l0 -85 -510 0 -510 0 0 85 0 85 510 0
510 0 0 -85z m6350 -90 l0 -175 -75 0 -75 0 0 175 0 175 75 0 75 0 0 -175z
m300 0 l0 -175 -75 0 -75 0 0 175 0 175 75 0 75 0 0 -175z m300 0 l0 -175 -75
0 -75 0 0 175 0 175 75 0 75 0 0 -175z m300 0 l0 -175 -75 0 -75 0 0 175 0
175 75 0 75 0 0 -175z m310 0 l0 -175 -75 0 -75 0 0 175 0 175 75 0 75 0 0
-175z m300 0 l0 -175 -75 0 -75 0 0 175 0 175 75 0 75 0 0 -175z m7265 20 l0
-140 -1337 -3 -1338 -2 0 145 0 145 1338 -2 1337 -3 0 -140z m5125 80 l0 -55
-640 0 -640 0 0 55 0 55 640 0 640 0 0 -55z m5050 -45 l0 -90 -510 0 -510 0 0
90 0 90 510 0 510 0 0 -90z m-6612 -17 l3 -43 -805 0 -806 0 0 38 c0 21 3 42
7 45 3 4 365 6 802 5 l796 -3 3 -42z m-6820 -50 l-3 -58 -60 0 -60 0 -3 58 -3
57 66 0 66 0 -3 -57z m200 0 l-3 -58 -60 0 -60 0 -3 58 -3 57 66 0 66 0 -3
-57z m4962 -8 l0 -35 -395 0 -395 0 0 35 0 35 395 0 395 0 0 -35z m4060 -85
l0 -100 -100 0 -100 0 0 100 0 100 100 0 100 0 0 -100z m278 3 l-3 -98 -97 -3
-98 -3 0 101 0 100 100 0 101 0 -3 -97z m280 0 l-3 -98 -97 -3 -98 -3 0 101 0
100 100 0 101 0 -3 -97z m272 -3 l0 -100 -95 0 -95 0 0 100 0 100 95 0 95 0 0
-100z m-13112 18 l-3 -73 -100 0 -100 0 -3 73 -3 72 106 0 106 0 -3 -72z m310
0 l-3 -73 -100 0 -100 0 -3 73 -3 72 106 0 106 0 -3 -72z m320 0 l-3 -73 -100
0 -100 0 -3 73 -3 72 106 0 106 0 -3 -72z m312 -3 l0 -76 -97 3 -98 3 -3 73
-3 72 101 0 100 0 0 -75z m320 0 l0 -76 -97 3 -98 3 -3 73 -3 72 101 0 100 0
0 -75z m320 0 l0 -75 -100 0 -100 0 0 75 0 75 100 0 100 0 0 -75z m320 0 l0
-75 -100 0 -100 0 0 75 0 75 100 0 100 0 0 -75z m308 3 l-3 -73 -100 0 -100 0
-3 73 -3 72 106 0 106 0 -3 -72z m-14820 -35 l-3 -98 -92 -3 -93 -3 0 101 0
100 95 0 96 0 -3 -97z m280 0 l-3 -98 -95 0 -95 0 -3 98 -3 97 101 0 101 0 -3
-97z m272 -3 l0 -100 -95 0 -95 0 0 100 0 100 95 0 95 0 0 -100z m278 3 l-3
-98 -95 0 -95 0 -3 98 -3 97 101 0 101 0 -3 -97z m23222 32 l0 -55 -640 0
-640 0 0 55 0 55 640 0 640 0 0 -55z m-25595 -65 l0 -75 -325 0 -325 0 -3 64
c-2 35 -1 70 2 78 5 11 62 13 328 11 l323 -3 0 -75z m24035 25 l0 -45 -805 0
-805 0 0 45 0 45 805 0 805 0 0 -45z m-17570 -125 l0 -160 -155 0 -155 0 0
160 0 160 155 0 155 0 0 -160z m440 0 l0 -160 -155 0 -155 0 0 153 c0 85 3
157 7 160 3 4 73 7 155 7 l148 0 0 -160z m450 0 l0 -160 -155 0 -155 0 0 160
0 160 155 0 155 0 0 -160z m448 -2 l3 -158 -156 0 -155 0 0 160 0 161 153 -3
152 -3 3 -157z m-3548 47 l0 -85 -510 0 -510 0 0 85 0 85 510 0 510 0 0 -85z
m1090 0 l0 -85 -510 0 -510 0 0 85 0 85 510 0 510 0 0 -85z m11865 5 l0 -55
-62 -3 -63 -3 0 54 c0 29 3 57 7 61 4 4 32 6 63 4 l55 -3 0 -55z m200 0 l0
-55 -60 0 -60 0 -3 44 c-5 68 0 72 65 69 l58 -3 0 -55z m-6355 -95 l0 -145
-615 0 -615 0 0 145 0 145 615 0 615 0 0 -145z m18500 60 l0 -85 -510 0 -510
0 0 85 0 85 510 0 510 0 0 -85z m1090 0 l0 -85 -510 0 -510 0 0 85 0 85 510 0
510 0 0 -85z m-5050 -40 l0 -55 -640 0 -640 0 0 55 0 55 640 0 640 0 0 -55z
m-1560 -20 l0 -45 -805 0 -805 0 0 45 0 45 805 0 805 0 0 -45z m-9880 -55 l0
-70 -105 0 -105 0 0 70 0 70 105 0 105 0 0 -70z m630 0 l0 -70 -105 0 -105 0
0 70 0 70 105 0 105 0 0 -70z m310 0 l0 -70 -100 0 -100 0 0 70 0 70 100 0
100 0 0 -70z m320 0 l0 -70 -100 0 -100 0 0 70 0 70 100 0 100 0 0 -70z m320
0 l0 -70 -100 0 -100 0 0 70 0 70 100 0 100 0 0 -70z m320 0 l0 -70 -100 0
-100 0 0 70 0 70 100 0 100 0 0 -70z m310 0 l0 -70 -105 0 -105 0 0 70 0 70
105 0 105 0 0 -70z m4108 -92 l-3 -143 -1337 -3 -1338 -2 0 145 0 145 1340 0
1341 0 -3 -142z m-20473 32 l0 -75 -325 0 -325 0 -3 64 c-2 35 -1 70 2 78 5
11 62 13 328 11 l323 -3 0 -75z m693 -2 l3 -78 -326 0 -325 0 0 80 0 80 323
-2 322 -3 3 -77z m21682 47 l0 -35 -395 0 -395 0 0 35 0 35 395 0 395 0 0 -35z
m4060 -65 l0 -100 -100 0 -100 0 0 100 0 100 100 0 100 0 0 -100z m280 0 l0
-100 -100 0 -100 0 0 100 0 100 100 0 100 0 0 -100z m280 0 l0 -100 -100 0
-100 0 0 100 0 100 100 0 100 0 0 -100z m270 0 l0 -100 -95 0 -95 0 0 100 0
100 95 0 95 0 0 -100z m-25722 -17 l-3 -98 -92 -3 -93 -3 0 101 0 100 95 0 96
0 -3 -97z m280 0 l-3 -98 -95 0 -95 0 -3 98 -3 97 101 0 101 0 -3 -97z m550 0
l-3 -98 -95 0 -95 0 -3 98 -3 97 101 0 101 0 -3 -97z m2972 -53 l0 -90 -510 0
-510 0 0 83 c0 46 3 87 7 90 3 4 233 7 510 7 l503 0 0 -90z m6350 -85 l0 -175
-75 0 -75 0 0 175 0 175 75 0 75 0 0 -175z m300 0 l0 -175 -75 0 -75 0 0 175
0 175 75 0 75 0 0 -175z m300 0 l0 -175 -75 0 -75 0 0 175 0 175 75 0 75 0 0
-175z m300 0 l0 -175 -75 0 -75 0 0 175 0 175 75 0 75 0 0 -175z m310 0 l0
-175 -75 0 -75 0 0 175 0 175 75 0 75 0 0 -175z m12690 120 l0 -55 -640 0
-640 0 0 55 0 55 640 0 640 0 0 -55z m-1560 0 l0 -45 -805 0 -805 0 0 45 0 45
805 0 805 0 0 -45z m5520 -70 l0 -85 -510 0 -510 0 0 85 0 85 510 0 510 0 0
-85z m1090 0 l0 -85 -510 0 -510 0 0 85 0 85 510 0 510 0 0 -85z m-8270 0 l0
-35 -395 0 -395 0 0 35 0 35 395 0 395 0 0 -35z m-4965 -55 l0 -55 -60 0 -60
0 -3 44 c-5 68 0 72 65 69 l58 -3 0 -55z m-3257 -27 l3 -73 -106 0 -105 0 0
68 c0 38 3 72 7 76 4 4 50 5 103 4 l95 -3 3 -72z m310 0 l3 -73 -106 0 -105 0
0 68 c0 38 3 72 7 76 4 4 50 5 103 4 l95 -3 3 -72z m320 0 l3 -73 -106 0 -105
0 0 68 c0 38 3 72 7 76 4 4 50 5 103 4 l95 -3 3 -72z m312 2 l0 -75 -100 0
-100 0 0 68 c0 38 3 72 7 75 3 4 48 7 100 7 l93 0 0 -75z m320 0 l0 -75 -100
0 -100 0 0 68 c0 38 3 72 7 75 3 4 48 7 100 7 l93 0 0 -75z m640 0 l0 -75
-100 0 -100 0 0 75 0 75 100 0 100 0 0 -75z m308 -2 l3 -73 -106 0 -105 0 0
68 c0 38 3 72 7 76 4 4 50 5 103 4 l95 -3 3 -72z m-16363 -53 l0 -75 -325 0
-325 0 -3 64 c-2 35 -1 70 2 78 5 11 62 13 328 11 l323 -3 0 -75z m693 -2 l3
-78 -326 0 -325 0 0 80 0 80 323 -2 322 -3 3 -77z m23342 37 l0 -45 -805 0
-805 0 0 45 0 45 805 0 805 0 0 -45z m-14302 -162 l-3 -148 -615 0 -615 0 -3
148 -3 147 621 0 621 0 -3 -147z m1322 -3 l0 -150 -615 0 -615 0 0 150 0 150
615 0 615 0 0 -150z m15380 40 l0 -100 -100 0 -100 0 0 100 0 100 100 0 100 0
0 -100z m278 -2 l3 -98 -101 0 -100 0 0 100 0 101 98 -3 97 -3 3 -97z m552 2
l0 -100 -95 0 -95 0 0 100 0 100 95 0 95 0 0 -100z m-25722 -12 l3 -98 -96 0
-95 0 0 100 0 101 93 -3 92 -3 3 -97z m280 0 l3 -98 -101 0 -100 0 0 93 c0 52
3 97 7 101 4 4 48 5 98 4 l90 -3 3 -97z m272 2 l0 -100 -95 0 -95 0 0 100 0
100 95 0 95 0 0 -100z m278 -2 l3 -98 -101 0 -100 0 0 93 c0 52 3 97 7 101 4
4 48 5 98 4 l90 -3 3 -97z m20002 62 l0 -40 -395 0 -395 0 0 40 0 40 395 0
395 0 0 -40z m-18120 -90 l0 -90 -510 0 -510 0 0 90 0 90 510 0 510 0 0 -90z
m1090 0 l0 -90 -510 0 -510 0 0 83 c0 46 3 87 7 90 3 4 233 7 510 7 l503 0 0
-90z m11868 18 l3 -58 -66 0 -65 0 0 53 c0 30 3 57 7 61 4 4 32 6 63 4 l55 -3
3 -57z m200 0 l3 -58 -66 0 -65 0 0 53 c0 30 3 57 7 61 4 4 32 6 63 4 l55 -3
3 -57z m12142 -53 l0 -85 -510 0 -510 0 0 85 0 85 510 0 510 0 0 -85z m1090 0
l0 -85 -510 0 -510 0 0 85 0 85 510 0 510 0 0 -85z m-6612 33 l-3 -43 -800 0
-800 0 -3 43 -3 42 806 0 806 0 -3 -42z m-3558 -108 l0 -140 -1340 0 -1340 0
0 140 0 140 1340 0 1340 0 0 -140z m5120 75 l0 -55 -640 0 -640 0 0 55 0 55
640 0 640 0 0 -55z m-11445 -50 l0 -70 -100 0 -100 0 -3 59 c-5 89 -7 87 105
84 l98 -3 0 -70z m310 0 l0 -70 -100 0 -100 0 -3 59 c-5 89 -7 87 105 84 l98
-3 0 -70z m320 0 l0 -70 -100 0 -100 0 -3 59 c-5 89 -7 87 105 84 l98 -3 0
-70z m315 0 l0 -75 -100 0 -100 0 0 75 0 75 100 0 100 0 0 -75z m320 0 l0 -75
-100 0 -100 0 0 75 0 75 100 0 100 0 0 -75z m320 0 l0 -75 -100 0 -100 0 0 75
0 75 100 0 100 0 0 -75z m320 0 l0 -75 -100 0 -100 0 0 75 0 75 100 0 100 0 0
-75z m305 0 l0 -70 -100 0 -100 0 -3 59 c-5 89 -7 87 105 84 l98 -3 0 -70z
m6015 0 l0 -35 -395 0 -395 0 0 35 0 35 395 0 395 0 0 -35z m-22370 -50 l0
-75 -330 0 -330 0 0 75 0 75 330 0 330 0 0 -75z m690 0 l0 -75 -325 0 -325 0
0 75 0 75 325 0 325 0 0 -75z m6940 -120 l0 -115 -360 0 -360 0 0 115 0 115
360 0 360 0 0 -115z m17960 30 l0 -55 -640 0 -640 0 0 55 0 55 640 0 640 0 0
-55z m-13902 -152 l-3 -178 -72 -3 -73 -3 0 181 0 180 75 0 75 0 -2 -177z
m302 -3 l0 -181 -72 3 -73 3 -3 178 -2 177 75 0 75 0 0 -180z m300 0 l0 -181
-72 3 -73 3 -3 165 c-1 90 0 170 2 177 4 9 28 13 76 13 l70 0 0 -180z m300 0
l0 -181 -72 3 -73 3 -3 165 c-1 90 0 170 2 177 4 9 28 13 76 13 l70 0 0 -180z
m305 0 l0 -175 -72 -3 -73 -3 0 181 0 181 73 -3 72 -3 0 -175z m303 3 l-3
-178 -72 -3 -73 -3 0 181 0 180 75 0 75 0 -2 -177z m-8948 77 l0 -90 -510 0
-510 0 0 90 0 90 510 0 510 0 0 -90z m1090 0 l0 -90 -507 2 -508 3 -3 88 -3
87 511 0 510 0 0 -90z m17030 45 l0 -35 -395 0 -395 0 0 35 0 35 395 0 395 0
0 -35z m-8222 -97 l-3 -73 -100 0 -100 0 -3 73 -3 72 106 0 106 0 -3 -72z
m310 0 l-3 -73 -100 0 -100 0 -3 73 -3 72 106 0 106 0 -3 -72z m320 0 l-3 -73
-100 0 -100 0 -3 73 -3 72 106 0 106 0 -3 -72z m312 -3 l0 -76 -97 3 -98 3 -3
73 -3 72 101 0 100 0 0 -75z m320 0 l0 -76 -97 3 -98 3 -3 73 -3 72 101 0 100
0 0 -75z m320 0 l0 -75 -100 0 -100 0 0 75 0 75 100 0 100 0 0 -75z m628 3
l-3 -73 -100 0 -100 0 -3 73 -3 72 106 0 106 0 -3 -72z m7670 15 l3 -43 -805
0 -806 0 0 38 c0 21 3 42 7 45 3 4 365 6 802 5 l796 -3 3 -42z m-1658 -93 l0
-40 -395 0 -395 0 0 40 0 40 395 0 395 0 0 -40z m1660 -75 l0 -45 -805 0 -805
0 0 45 0 45 805 0 805 0 0 -45z m-1660 -100 l0 -35 -395 0 -395 0 0 35 0 35
395 0 395 0 0 -35z"/>
</g>
</svg>
